<svg width="1262" xmlns="http://www.w3.org/2000/svg" height="1756" id="screenshot-0e0c4a1f-6427-8092-8007-e54501aae741" viewBox="-231 -231 1262 1756" xmlns:xlink="http://www.w3.org/1999/xlink" fill="none" version="1.1"><g id="shape-0e0c4a1f-6427-8092-8007-e54501aae741" rx="0" ry="0"><g id="shape-0e0c4a1f-6427-8092-8007-e5447f8d0ce6"><defs><filter id="filter-render-2" x="-0.28875000000000006" y="-0.18996710526315788" width="1.5775000000000001" height="1.444078947368421" filterUnits="objectBoundingBox" color-interpolation-filters="sRGB"><feFlood flood-opacity="0" result="BackgroundImageFix"/><feColorMatrix in="SourceAlpha" type="matrix" values="0 0 0 0 0 0 0 0 0 0 0 0 0 0 0 0 0 0 127 0"/><feOffset dx="0" dy="26"/><feGaussianBlur stdDeviation="36"/><feColorMatrix type="matrix" values="0 0 0 0 0.08627450980392157 0 0 0 0 0.18823529411764706 0 0 0 0 0.3333333333333333 0 0 0 0.14 0"/><feBlend mode="normal" in2="BackgroundImageFix" result="filter_d7e1f205-cf37-80d3-8007-e5080c4309c6"/><feBlend mode="normal" in="SourceGraphic" in2="filter_d7e1f205-cf37-80d3-8007-e5080c4309c6" result="shape"/></filter><filter id="filter-shadow-render-2" x="-0.28875000000000006" y="-0.18996710526315788" width="1.5775000000000001" height="1.444078947368421" filterUnits="objectBoundingBox" color-interpolation-filters="sRGB"><feFlood flood-opacity="0" result="BackgroundImageFix"/><feColorMatrix in="SourceAlpha" type="matrix" values="0 0 0 0 0 0 0 0 0 0 0 0 0 0 0 0 0 0 127 0"/><feOffset dx="0" dy="26"/><feGaussianBlur stdDeviation="36"/><feColorMatrix type="matrix" values="0 0 0 0 0.08627450980392157 0 0 0 0 0.18823529411764706 0 0 0 0 0.3333333333333333 0 0 0 0.14 0"/><feBlend mode="normal" in2="BackgroundImageFix" result="filter_d7e1f205-cf37-80d3-8007-e5080c4309c6"/><feBlend mode="normal" in="SourceGraphic" in2="filter_d7e1f205-cf37-80d3-8007-e5080c4309c6" result="shape"/></filter><linearGradient id="fill-color-gradient-render-2-0" x1="0.08088771850083475" y1="0.013535697434128443" x2="0.5309255865121153" y2="0.5460934859681124" gradientTransform=""><stop offset="0" stop-color="#ffffff" stop-opacity="0.34"/><stop offset="0.42" stop-color="#ffffff" stop-opacity="0.12"/><stop offset="1" stop-color="#ffffff" stop-opacity="0"/></linearGradient><pattern patternUnits="userSpaceOnUse" x="0" y="0" width="799.9999999999999" height="1216" patternTransform="matrix(1.000000, 0.000000, 0.000000, 1.000000, 0.000000, 0.000000)" id="fill-0-render-2"><g><rect width="799.9999999999999" height="1216" style="fill: url(&quot;#fill-color-gradient-render-2-0&quot;);"/></g></pattern></defs><g class="fills" id="fills-0e0c4a1f-6427-8092-8007-e5447f8d0ce6"><path d="M336.0000305175781,135.9999542236328C252.10891723632812,135.9999542236328,184.00003051757812,204.1089630126953,184.00003051757812,287.99993896484375C184.00003051757812,349.03314208984375,220.05007934570312,401.71307373046875,272.0000305175781,425.88909912109375L272.0000305175781,483.99993896484375L480.0000305175781,483.99993896484375C532.9838256835938,483.99993896484375,576.0000610351562,527.0160522460938,576.0000610351562,579.9999389648438L576.0000610351562,579.9999389648438C576.0000610351562,632.9838256835938,532.9838256835938,675.9999389648438,480.0000305175781,675.9999389648438L272.0000305175781,675.9999389648438L272.0000305175781,1080C272.0000305175781,1155.060546875,211.06045532226562,1216,136.00003051757812,1216L136.00003051757812,1216C60.939552307128906,1216,-0.00002396668423898518,1155.060546875,-0.00002396668423898518,1080L-0.00002396668423898518,135.9999542236328C-0.00002396668423898518,60.93952178955078,60.939552307128906,-0.000052726703870575875,136.00003051757812,-0.000052726703870575875L136.00003051757812,-0.000052726703870575875L664.0000610351562,-0.000052726703870575875C739.0604858398438,-0.000052726703870575875,800.0000610351562,60.93952178955078,800.0000610351562,135.9999542236328L800.0000610351562,135.9999542236328C800.0000610351562,211.0605010986328,739.0604858398438,271.99993896484375,664.0000610351562,271.99993896484375L487.1662902832031,271.99993896484375C479.1606750488281,195.6176300048828,414.4875793457031,135.9999542236328,336.0000305175781,135.9999542236328M-0.00002396668423898518,135.9999542236328L-0.00002396668423898518,135.9999542236328" filter="url(#filter-render-2)" fill="url(#fill-0-render-2)"/></g></g><g id="shape-0e0c4a1f-6427-8092-8007-e5447f8d0ced"><defs><filter id="filter-render-3" x="-0.28875000000000006" y="-0.18996710526315788" width="1.5775000000000001" height="1.444078947368421" filterUnits="objectBoundingBox" color-interpolation-filters="sRGB"><feFlood flood-opacity="0" result="BackgroundImageFix"/><feColorMatrix in="SourceAlpha" type="matrix" values="0 0 0 0 0 0 0 0 0 0 0 0 0 0 0 0 0 0 127 0"/><feOffset dx="0" dy="26"/><feGaussianBlur stdDeviation="36"/><feColorMatrix type="matrix" values="0 0 0 0 0.08627450980392157 0 0 0 0 0.18823529411764706 0 0 0 0 0.3333333333333333 0 0 0 0.14 0"/><feBlend mode="normal" in2="BackgroundImageFix" result="filter_d7e1f205-cf37-80d3-8007-e5080c4309c6"/><feBlend mode="normal" in="SourceGraphic" in2="filter_d7e1f205-cf37-80d3-8007-e5080c4309c6" result="shape"/></filter><filter id="filter-shadow-render-3" x="-0.28875000000000006" y="-0.18996710526315788" width="1.5775000000000001" height="1.444078947368421" filterUnits="objectBoundingBox" color-interpolation-filters="sRGB"><feFlood flood-opacity="0" result="BackgroundImageFix"/><feColorMatrix in="SourceAlpha" type="matrix" values="0 0 0 0 0 0 0 0 0 0 0 0 0 0 0 0 0 0 127 0"/><feOffset dx="0" dy="26"/><feGaussianBlur stdDeviation="36"/><feColorMatrix type="matrix" values="0 0 0 0 0.08627450980392157 0 0 0 0 0.18823529411764706 0 0 0 0 0.3333333333333333 0 0 0 0.14 0"/><feBlend mode="normal" in2="BackgroundImageFix" result="filter_d7e1f205-cf37-80d3-8007-e5080c4309c6"/><feBlend mode="normal" in="SourceGraphic" in2="filter_d7e1f205-cf37-80d3-8007-e5080c4309c6" result="shape"/></filter><linearGradient id="fill-color-gradient-render-3-0" x1="0.10066334249306806" y1="0.03647551578053129" x2="0.5245379771372373" y2="0.9507104989823184" gradientTransform=""><stop offset="0" stop-color="#18d88a" stop-opacity="1"/><stop offset="0.56" stop-color="#2f7bff" stop-opacity="1"/><stop offset="0.92" stop-color="#2a73f5" stop-opacity="1"/><stop offset="1" stop-color="#ff5b61" stop-opacity="1"/></linearGradient><pattern patternUnits="userSpaceOnUse" x="0" y="0" width="799.9999999999999" height="1216" patternTransform="matrix(1.000000, 0.000000, 0.000000, 1.000000, 0.000000, 0.000000)" id="fill-0-render-3"><g><rect width="799.9999999999999" height="1216" style="fill: url(&quot;#fill-color-gradient-render-3-0&quot;);"/></g></pattern></defs><g class="fills" id="fills-0e0c4a1f-6427-8092-8007-e5447f8d0ced"><path d="M336.0000305175781,135.9999542236328C252.10891723632812,135.9999542236328,184.00003051757812,204.1089630126953,184.00003051757812,287.99993896484375C184.00003051757812,349.03314208984375,220.05007934570312,401.71307373046875,272.0000305175781,425.88909912109375L272.0000305175781,483.99993896484375L480.0000305175781,483.99993896484375C532.9838256835938,483.99993896484375,576.0000610351562,527.0160522460938,576.0000610351562,579.9999389648438L576.0000610351562,579.9999389648438C576.0000610351562,632.9838256835938,532.9838256835938,675.9999389648438,480.0000305175781,675.9999389648438L272.0000305175781,675.9999389648438L272.0000305175781,1080C272.0000305175781,1155.060546875,211.06045532226562,1216,136.00003051757812,1216L136.00003051757812,1216C60.939552307128906,1216,-0.00002396668423898518,1155.060546875,-0.00002396668423898518,1080L-0.00002396668423898518,135.9999542236328C-0.00002396668423898518,60.93952178955078,60.939552307128906,-0.000052726703870575875,136.00003051757812,-0.000052726703870575875L136.00003051757812,-0.000052726703870575875L664.0000610351562,-0.000052726703870575875C739.0604858398438,-0.000052726703870575875,800.0000610351562,60.93952178955078,800.0000610351562,135.9999542236328L800.0000610351562,135.9999542236328C800.0000610351562,211.0605010986328,739.0604858398438,271.99993896484375,664.0000610351562,271.99993896484375L487.1662902832031,271.99993896484375C479.1606750488281,195.6176300048828,414.4875793457031,135.9999542236328,336.0000305175781,135.9999542236328M-0.00002396668423898518,135.9999542236328L-0.00002396668423898518,135.9999542236328" filter="url(#filter-render-3)" fill="url(#fill-0-render-3)"/></g></g></g></svg>